<?xml version="1.0" encoding="iso-8859-1"?>
<!-- Uploaded to: SVG Repo, www.svgrepo.com, Generator: SVG Repo Mixer Tools -->
<svg fill="#99aa00" height="800px" width="800px" version="1.1" id="Capa_1" xmlns="http://www.w3.org/2000/svg" xmlns:xlink="http://www.w3.org/1999/xlink" 
	 viewBox="0 0 463 463" xml:space="preserve">
<path d="M352.276,62.763l29.72-51.515c1.339-2.32,1.338-5.18-0.002-7.499C380.654,1.429,378.179,0,375.5,0h-144
	c-3.066,0-5.824,1.867-6.964,4.715l-7.93,19.825C108.311,32.215,24,122.424,24,231.5c0,80.059,45.919,152.627,117.66,187.093
	l-13.16,34.215c-1.317,3.426,0.037,7.302,3.202,9.16c1.187,0.696,2.496,1.032,3.794,1.032c2.165,0,4.297-0.936,5.766-2.698
	l26.16-31.393C188.056,435.603,209.594,439,231.5,439C345.916,439,439,345.916,439,231.5
	C439,164.397,406.686,101.758,352.276,62.763z M342.292,212.318c-1.234-2.635-3.882-4.318-6.792-4.318h-67.015l60.15-104.26
	C368.424,134.044,392,181.315,392,231.5C392,320,320,392,231.5,392c-10.393,0-20.73-0.999-30.848-2.966l140.61-168.732
	C343.125,218.065,343.526,214.954,342.292,212.318z M236.578,15h125.937L249.004,211.752c-1.339,2.32-1.338,5.18,0.002,7.499
	c1.34,2.32,3.815,3.749,6.494,3.749h63.987L159.488,414.998c-0.003-0.278-0.023-0.554-0.057-0.828L222.5,250.192
	c0.887-2.307,0.581-4.901-0.817-6.938c-1.399-2.037-3.712-3.254-6.183-3.254h-68.922L236.578,15z M129.289,251.705
	c1.396,2.061,3.723,3.295,6.211,3.295h69.08l-45.967,119.512C105.157,347.219,71,291.891,71,231.5
	c0-38.526,13.854-75.776,39.01-104.887c22.629-26.187,53.038-44.324,86.479-51.779l-67.952,169.881
	C127.612,247.025,127.895,249.644,129.289,251.705z M39,231.5c0-98.723,74.441-180.787,171.36-191.344l-7.256,18.14
	c-40.444,6.586-77.495,27.324-104.443,58.509C71.15,148.641,56,189.373,56,231.5c0,66.563,37.937,127.519,97.194,157.102
	l-6.129,15.936C81.137,372.352,39,305.365,39,231.5z M231.5,424c-18.291,0-36.299-2.555-53.665-7.587l12.01-14.411
	c13.57,3.303,27.566,4.998,41.655,4.998c96.771,0,175.5-78.729,175.5-175.5c0-55.518-26.373-107.784-70.806-140.862l8.545-14.812
	C394.493,112.063,424,169.743,424,231.5C424,337.645,337.645,424,231.5,424z"/>
</svg>